<svg class="icon" style="width: 1em;height: 1em;vertical-align: middle;fill: currentColor;overflow: hidden;" viewBox="0 0 1024 1024" version="1.1" xmlns="http://www.w3.org/2000/svg" p-id="1545"><path d="M86.8 72.8c14.9 0 27 12.1 27 27s-12.1 27-27 27-27-12.1-27-27 12.1-27 27-27M946.2 117.8H243c-9.9 0-18-8.1-18-18s8.1-18 18-18h703.2c9.9 0 18 8.1 18 18s-8.1 18-18 18zM86.8 485c14.9 0 27 12.1 27 27s-12.1 27-27 27-27-12.1-27-27c0-15 12.1-27 27-27M946.2 525.5H243c-9.9 0-18-8.1-18-18s8.1-18 18-18h703.2c9.9 0 18 8.1 18 18s-8.1 18-18 18zM86.8 897.2c14.9 0 27 12.1 27 27s-12.1 27-27 27-27-12.1-27-27c0-15 12.1-27 27-27M946.2 942.2H243c-9.9 0-18-8.1-18-18s8.1-18 18-18h703.2c9.9 0 18 8.1 18 18s-8.1 18-18 18z" fill="#fff" p-id="1546"></path></svg>