<svg class="icon" style="width: 1em;height: 1em;vertical-align: middle;fill: currentColor;overflow: hidden;" viewBox="0 0 1024 1024" version="1.1" xmlns="http://www.w3.org/2000/svg" p-id="1608"><path d="M515.50910938 853.97501937c-88.5324975 0-171.76623937-34.47700219-234.36875625-97.07834906-62.60251687-62.60251687-97.07951906-145.83625875-97.07951907-234.36875625 0-86.33579531 33.0172125-168.078165 92.9691825-230.16952219 59.79522844-61.9287675 140.01347625-97.80356531 225.88021969-101.01673968l18.44154094-0.69012469-7.24514156 16.97122406c-13.38257438 31.34687625-20.16802312 64.66002469-20.16802313 99.01537781 0 139.18181719 113.23195125 252.4137675 252.41259844 252.41376751 28.53607969 0 56.56450875-4.74080719 83.30860312-14.08790532l17.40167438-6.08362687-1.90778531 18.33626812C836.7213125 638.25718156 798.69426031 713.16029656 738.0779 768.12933031c-61.04915063 55.35737437-140.09184562 85.84568906-222.56879062 85.84568906z m-29.68589813-638.07310874C328.33086031 230.79691156 207.45606875 362.18265687 207.45606875 522.52674406c0 169.86196312 138.19224844 308.05304156 308.05304062 308.05304156 152.2649475 0 279.92869688-109.68541031 304.00352907-257.96284031-23.75316375 6.52811344-48.28300969 9.82784625-73.1625975 9.82784625-73.66907906 0-142.93071563-28.68814125-195.02344875-80.78321344-52.09390313-52.09390313-80.78321344-121.35436969-80.78321344-195.02461875 0.00117-31.21820906 5.13265781-61.65622688 15.2798325-90.73504875z" fill="" p-id="1609"></path></svg>