<?xml version="1.0" encoding="utf-8"?>
<!-- Generator: Adobe Illustrator 19.0.0, SVG Export Plug-In . SVG Version: 6.00 Build 0)  -->
<svg version="1.1" id="图层_1" xmlns="http://www.w3.org/2000/svg" xmlns:xlink="http://www.w3.org/1999/xlink" x="0px" y="0px"
	 viewBox="206 -116 1024 1024" style="enable-background:new 206 -116 1024 1024;" xml:space="preserve">
<style type="text/css">
	.st0{fill:#FFC106;}
</style>
<path class="st0" d="M721.5,738c-88.5,0-171.8-34.5-234.4-97.1c-62.6-62.6-97.1-145.8-97.1-234.4c0-86.3,33-168.1,93-230.2
	c59.8-61.9,140-97.8,225.9-101l18.4-0.7l-7.2,17c-13.4,31.3-20.2,64.7-20.2,99c0,139.2,113.2,252.4,252.4,252.4
	c28.5,0,56.6-4.7,83.3-14.1l17.4-6.1l-1.9,18.3c-8.4,81-46.5,155.9-107.1,210.9C883,707.5,804,738,721.5,738z"/>
</svg>
